<svg width="24" height="30" viewBox="0 0 24 30" fill="none" xmlns="http://www.w3.org/2000/svg">
<mask id="mask0_244_68526" style="mask-type:luminance" maskUnits="userSpaceOnUse" x="5" y="5" width="14" height="20">
<path d="M18.2981 5.47461H5.46094V24.7304H18.2981V5.47461Z" fill="white"/>
</mask>
<g mask="url(#mask0_244_68526)">
<path d="M8.66992 18.7119H11.4785V21.5195C11.4785 23.0695 10.2199 24.3281 8.66992 24.3281C7.1201 24.328 5.8623 23.0694 5.8623 21.5195C5.86247 19.9698 7.1202 18.7121 8.66992 18.7119Z" stroke="#9BACA7" stroke-width="0.802326"/>
<path d="M8.66992 12.2939H11.4785V17.9102H8.66992C7.1201 17.91 5.8623 16.6514 5.8623 15.1016C5.86247 13.5518 7.1202 12.2941 8.66992 12.2939Z" stroke="#9BACA7" stroke-width="0.802326"/>
<path d="M8.66992 5.87598H11.4785V11.4922H8.66992C7.1201 11.492 5.8623 10.2335 5.8623 8.68359C5.86247 7.13387 7.1202 5.87614 8.66992 5.87598Z" stroke="#9BACA7" stroke-width="0.802326"/>
<path d="M15.0918 5.87598C16.6417 5.87598 17.9002 7.13376 17.9004 8.68359C17.9004 10.2336 16.6418 11.4922 15.0918 11.4922H12.2842V5.87598H15.0918Z" stroke="#9BACA7" stroke-width="0.802326"/>
<path d="M15.0918 12.2939C16.6417 12.2939 17.9002 13.5517 17.9004 15.1016C17.9004 16.6515 16.6418 17.9102 15.0918 17.9102C13.542 17.91 12.2842 16.6514 12.2842 15.1016C12.2843 13.5518 13.5421 12.2941 15.0918 12.2939Z" stroke="#9BACA7" stroke-width="0.802326"/>
</g>
</svg>
