<svg width="24" height="25" viewBox="0 0 24 25" fill="none" xmlns="http://www.w3.org/2000/svg">
<g clip-path="url(#clip0_244_68560)">
<path d="M12.0312 10.6816C11.0906 10.6816 10.3281 11.4442 10.3281 12.3848C10.3281 13.3254 11.0906 14.0879 12.0312 14.0879C12.9719 14.0879 13.7344 13.3254 13.7344 12.3848C13.7344 11.4442 12.9719 10.6816 12.0312 10.6816Z" fill="#9BACA7"/>
<path d="M20.8894 12.4002C20.8894 11.0631 19.6512 9.89044 17.6797 9.11868C17.7061 8.94488 17.7299 8.77296 17.7469 8.60417C17.9413 6.68294 17.4784 5.29629 16.4441 4.69896C15.2868 4.03073 13.6522 4.51574 11.9994 5.8384C10.3466 4.51574 8.71196 4.03073 7.55469 4.69896C6.52035 5.29629 6.05744 6.68294 6.25189 8.60417C6.26883 8.77296 6.29204 8.9455 6.31901 9.11993C6.15467 9.18268 5.99347 9.24919 5.83853 9.31883C4.07847 10.11 3.10938 11.2056 3.10938 12.4002C3.10938 13.7373 4.34756 14.91 6.31901 15.6818C6.29204 15.8556 6.26883 16.0275 6.25189 16.1963C6.05744 18.1175 6.52035 19.5041 7.55469 20.1015C7.9103 20.3031 8.31326 20.4062 8.722 20.4001C9.70176 20.4001 10.8459 19.8844 11.9994 18.962C13.1523 19.8844 14.297 20.4001 15.278 20.4001C15.6867 20.4061 16.0897 20.303 16.4453 20.1015C17.4796 19.5041 17.9426 18.1175 17.7481 16.1963C17.7312 16.0275 17.7073 15.8556 17.681 15.6818C19.6524 14.9112 20.8906 13.7367 20.8906 12.4002M15.2705 5.24734C15.5333 5.241 15.7931 5.30467 16.0232 5.43181C16.7414 5.84655 17.0638 6.97156 16.907 8.51821C16.8963 8.62362 16.8838 8.73029 16.8687 8.83758C16.049 8.59064 15.2096 8.41452 14.3597 8.31116C13.8445 7.62614 13.2716 6.98653 12.6473 6.39933C13.6277 5.64138 14.5479 5.24734 15.2698 5.24734M14.933 14.0943C14.6158 14.6451 14.2703 15.1791 13.8981 15.6943C13.267 15.7591 12.6331 15.7914 11.9987 15.7909C11.3646 15.7914 10.7309 15.7591 10.1001 15.6943C9.72878 15.1791 9.38438 14.6451 9.06824 14.0943C8.75102 13.5451 8.46272 12.9796 8.20452 12.4002C8.46272 11.8208 8.75102 11.2554 9.06824 10.7061C9.38388 10.1576 9.72722 9.62542 10.0969 9.11178C10.7289 9.04533 11.3639 9.01224 11.9994 9.01264C12.6335 9.01226 13.2672 9.04451 13.8981 9.10927C14.269 9.62371 14.6136 10.1567 14.9305 10.7061C15.2475 11.2555 15.5358 11.821 15.7942 12.4002C15.5358 12.9795 15.2475 13.5449 14.9305 14.0943M16.2258 13.4669C16.4248 14.0099 16.5883 14.5653 16.715 15.1296C16.165 15.3011 15.6043 15.4363 15.0365 15.5343C15.2523 15.2089 15.4614 14.8703 15.6638 14.5185C15.8639 14.1709 16.0514 13.8201 16.2283 13.4694M10.8082 16.5997C11.1984 16.6235 11.5967 16.6373 12 16.6373C12.4033 16.6373 12.8041 16.6235 13.1949 16.5997C12.8244 17.0436 12.4252 17.4628 12 17.8546C11.5757 17.4629 11.1776 17.0437 10.8082 16.5997ZM8.96286 15.533C8.39492 15.4355 7.83399 15.3007 7.28372 15.1296C7.40995 14.5662 7.57276 14.0116 7.77109 13.4694C7.94546 13.8201 8.13238 14.1709 8.33561 14.5185C8.53884 14.8661 8.74897 15.2087 8.96286 15.5343M7.77109 11.3304C7.57347 10.7902 7.41109 10.2377 7.28497 9.67648C7.83388 9.50515 8.3933 9.36955 8.95972 9.27052C8.74521 9.59491 8.53508 9.93122 8.33248 10.282C8.12987 10.6327 7.94484 10.9791 7.76795 11.3304M13.1911 8.2001C12.801 8.17626 12.4027 8.16245 11.9962 8.16245C11.5931 8.16245 11.1959 8.175 10.8045 8.2001C11.1738 7.75613 11.5719 7.33693 11.9962 6.94521C12.4216 7.33682 12.8208 7.75603 13.1911 8.2001ZM15.6625 10.282C15.4593 9.92976 15.2491 9.59094 15.0321 9.2655C15.6014 9.36349 16.1636 9.49889 16.715 9.67083C16.5885 10.2342 16.4257 10.7887 16.2277 11.331C16.0533 10.9803 15.8657 10.6296 15.6631 10.2826M7.09429 8.51884C6.93559 6.97282 7.25988 5.84718 7.97745 5.43244C8.20765 5.30549 8.46736 5.24184 8.73015 5.24797C9.45212 5.24797 10.3723 5.64201 11.3527 6.39996C10.7279 6.98757 10.1546 7.6276 9.63904 8.31304C8.78943 8.41689 7.95011 8.59236 7.13004 8.83758C7.11561 8.73029 7.10244 8.62425 7.09241 8.51884M6.18603 10.0912C6.28263 10.0494 6.38111 10.0076 6.48146 9.96573C6.67877 10.7984 6.94631 11.6128 7.28121 12.4002C6.94567 13.1892 6.67792 14.0053 6.48084 14.8397C4.88261 14.184 3.95616 13.2755 3.95616 12.4002C3.95616 11.5707 4.77158 10.7293 6.18603 10.0912ZM7.97745 19.368C7.25988 18.9532 6.93559 17.8276 7.09429 16.2816C7.10432 16.1762 7.1175 16.0701 7.13192 15.9622C7.95168 16.2091 8.79108 16.3852 9.64092 16.4886C10.1563 17.1739 10.7291 17.8139 11.3533 18.4017C9.98653 19.4577 8.73768 19.8059 7.97933 19.368M16.9063 16.2816C17.0632 17.8282 16.7407 18.9532 16.0225 19.368C15.2648 19.8072 14.0154 19.4577 12.6492 18.4017C13.2732 17.8139 13.8458 17.1739 14.361 16.4886C15.2108 16.3853 16.0502 16.2092 16.87 15.9622C16.885 16.0701 16.8976 16.1762 16.9082 16.2816M17.5217 14.8385C17.324 14.0045 17.0561 13.1889 16.7207 12.4002C17.0559 11.6111 17.3237 10.7951 17.521 9.96071C19.1161 10.6164 20.0451 11.5249 20.0451 12.4002C20.0451 13.2755 19.1186 14.184 17.5204 14.8397" fill="#9BACA7"/>
</g>
<defs>
<clipPath id="clip0_244_68560">
<rect width="17.7812" height="16" fill="white" transform="translate(3.10938 4.40039)"/>
</clipPath>
</defs>
</svg>
