<svg width="24" height="25" viewBox="0 0 24 25" fill="none" xmlns="http://www.w3.org/2000/svg">
<g clip-path="url(#clip0_244_68550)">
<mask id="mask0_244_68550" style="mask-type:luminance" maskUnits="userSpaceOnUse" x="0" y="5" width="24" height="15">
<path d="M0.542969 5.41699H23.4521V19.1624H0.542969V5.41699Z" fill="white"/>
</mask>
<g mask="url(#mask0_244_68550)">
<path d="M6.27051 12.502C7.65376 12.502 8.65166 12.8224 9.43848 13.2754C10.2302 13.7313 10.8177 14.3258 11.3809 14.8975C12.061 15.5876 12.7248 16.2702 13.6641 16.5049C14.4687 16.706 15.2329 16.6568 15.9473 16.3506C16.3993 16.1568 16.8248 15.8617 17.2266 15.4717C16.8415 16.4967 16.2939 17.2868 15.5879 17.8516C14.6795 18.5782 13.4885 18.9502 11.9971 18.9502C10.6138 18.9501 9.6159 18.6298 8.8291 18.1768C8.03738 17.7208 7.44988 17.1264 6.88672 16.5547C6.24902 15.9076 5.62574 15.2681 4.77637 14.9971L4.60352 14.9473C3.79888 14.7461 3.03469 14.7954 2.32031 15.1016C1.86847 15.2953 1.4426 15.5897 1.04102 15.9795C1.42604 14.9549 1.97392 14.1652 2.67969 13.6006C3.58803 12.8739 4.77911 12.502 6.27051 12.502ZM11.9971 5.62891C13.3807 5.62891 14.3791 5.95015 15.166 6.40332C15.9578 6.8593 16.5452 7.45367 17.1084 8.02539C17.7885 8.71552 18.4523 9.39723 19.3916 9.63184C20.1961 9.83296 20.9595 9.78361 21.6738 9.47754C22.1259 9.2838 22.5514 8.98859 22.9531 8.59863C22.5681 9.6235 22.0213 10.4137 21.3154 10.9785C20.4071 11.7052 19.216 12.0771 17.7246 12.0771C16.3413 12.0771 15.3435 11.7568 14.5566 11.3037C13.7649 10.8478 13.1774 10.2533 12.6143 9.68164C11.9342 8.99156 11.2702 8.3099 10.3311 8.0752C9.5264 7.87403 8.76224 7.92235 8.04785 8.22852C7.59562 8.42234 7.16947 8.71724 6.76758 9.10742C7.15259 8.08255 7.70135 7.2933 8.40723 6.72852C9.31548 6.00191 10.5059 5.62898 11.9971 5.62891Z" stroke="#9BACA7" stroke-width="0.424242"/>
</g>
</g>
<defs>
<clipPath id="clip0_244_68550">
<rect width="22.9091" height="14" fill="white" transform="translate(0.542969 5.41699)"/>
</clipPath>
</defs>
</svg>
