<svg width="305" height="46" viewBox="0 0 305 46" fill="none" xmlns="http://www.w3.org/2000/svg">
<mask id="mask0_87_2608" style="mask-type:luminance" maskUnits="userSpaceOnUse" x="127" y="14" width="92" height="20">
<path d="M218.52 14.9131H127.938V33.6761H218.52V14.9131Z" fill="white"/>
</mask>
<g mask="url(#mask0_87_2608)">
<path d="M139.453 19.3147C139.338 19.3862 139.201 19.4116 139.067 19.3858C138.934 19.3601 138.815 19.2851 138.735 19.1758C138.338 18.6076 137.805 18.147 137.186 17.8355C136.566 17.524 135.879 17.3712 135.186 17.391C132.476 17.391 130.809 19.5348 130.809 22.5965C130.809 25.6582 132.503 27.8427 135.213 27.8427C135.917 27.8589 136.614 27.6954 137.237 27.3677C137.86 27.04 138.39 26.5589 138.776 25.9698C138.854 25.8587 138.97 25.7807 139.102 25.7513C139.235 25.7218 139.373 25.743 139.491 25.8106L140.774 26.5557C140.84 26.5939 140.897 26.6454 140.942 26.7069C140.986 26.7684 141.018 26.8385 141.034 26.9128C141.049 26.9871 141.05 27.0639 141.034 27.1384C141.019 27.2127 140.988 27.2831 140.944 27.3448C140.314 28.2879 139.456 29.0558 138.449 29.5765C137.442 30.0972 136.319 30.3536 135.186 30.3218C130.874 30.3218 127.938 27.1789 127.938 22.5965C127.938 18.0141 130.874 14.9118 135.142 14.9118C136.256 14.8809 137.361 15.1234 138.36 15.6181C139.359 16.1129 140.222 16.8449 140.873 17.7499C140.917 17.8106 140.949 17.8799 140.966 17.9534C140.982 18.0268 140.984 18.1029 140.97 18.177C140.956 18.251 140.927 18.3214 140.884 18.3837C140.842 18.446 140.787 18.4989 140.723 18.5391L139.453 19.3147Z" fill="#838F8C"/>
<path d="M148.942 29.51V28.8868C148.264 29.7606 147.316 30.3025 145.795 30.3025C143.546 30.3025 141.984 29.0731 141.984 26.9156C141.984 24.2299 144.379 23.7693 145.859 23.5627C147.441 23.3324 148.796 23.224 148.796 22.1876C148.796 21.2699 147.732 21.0226 146.835 21.0226C145.806 21.0401 144.794 21.2964 143.881 21.7711C143.817 21.806 143.747 21.8277 143.675 21.8348C143.603 21.8419 143.53 21.8343 143.46 21.8125C143.391 21.7907 143.327 21.755 143.272 21.7077C143.217 21.6605 143.172 21.6025 143.14 21.5374L142.665 20.5755C142.602 20.4502 142.591 20.3053 142.632 20.1714C142.674 20.0376 142.766 19.925 142.889 19.8575C144.166 19.172 145.592 18.8115 147.041 18.8076C149.622 18.8076 151.444 19.8677 151.444 22.4315V29.51C151.444 29.6537 151.387 29.7915 151.286 29.8931C151.184 29.9948 151.046 30.0518 150.903 30.0518H149.48C149.337 30.051 149.2 29.9935 149.099 29.8919C148.998 29.7904 148.942 29.6531 148.942 29.51ZM148.796 24.616C148.295 24.9919 147.377 25.1172 146.398 25.2934C145.419 25.4695 144.609 25.7303 144.609 26.7937C144.609 27.7725 145.318 28.2297 146.337 28.2297C147.607 28.2297 148.796 27.5219 148.796 25.8759V24.616Z" fill="#838F8C"/>
<path d="M153.785 27.2473C153.877 27.1399 154.006 27.0725 154.147 27.0592C154.287 27.0459 154.427 27.0879 154.537 27.1762C155.441 27.8602 156.55 28.2184 157.683 28.1923C158.852 28.1923 159.716 27.8163 159.716 26.9019C159.716 26.0687 158.923 25.8858 157.006 25.5674C154.974 25.2288 153.026 24.5514 153.026 22.2348C153.026 19.82 155.109 18.8006 157.484 18.8006C158.973 18.778 160.427 19.255 161.612 20.1553C161.671 20.2004 161.719 20.2569 161.755 20.3214C161.79 20.3859 161.813 20.457 161.82 20.5303C161.827 20.6036 161.818 20.6777 161.796 20.7477C161.773 20.8178 161.736 20.8824 161.687 20.9376L161.01 21.7336C160.92 21.8403 160.792 21.9086 160.654 21.9243C160.516 21.94 160.376 21.9021 160.264 21.8183C159.437 21.2098 158.436 20.8844 157.409 20.8902C156.393 20.8902 155.536 21.1815 155.536 21.9707C155.536 22.8478 156.766 23.0138 157.995 23.2204C160.617 23.681 162.283 24.4295 162.283 26.6072C162.283 28.9001 160.451 30.3158 157.541 30.3158C155.95 30.3643 154.393 29.8551 153.138 28.8763C153.082 28.8305 153.036 28.774 153.001 28.71C152.967 28.6459 152.946 28.5758 152.94 28.5035C152.933 28.4313 152.941 28.3585 152.963 28.2893C152.985 28.2202 153.02 28.1561 153.067 28.1008L153.785 27.2473Z" fill="#838F8C"/>
<path d="M163.859 29.5089V15.7245C163.859 15.5808 163.916 15.4429 164.018 15.3413C164.12 15.2397 164.257 15.1826 164.401 15.1826H165.963C166.106 15.1826 166.244 15.2397 166.346 15.3413C166.447 15.4429 166.504 15.5808 166.504 15.7245V20.4288C166.892 19.9095 167.4 19.4909 167.983 19.2086C168.567 18.9263 169.209 18.7884 169.858 18.8065C172.171 18.8065 173.522 20.4525 173.522 22.803V29.5089C173.522 29.6526 173.466 29.7904 173.364 29.8921C173.262 29.9937 173.124 30.0508 172.98 30.0508H171.419C171.275 30.0508 171.137 29.9937 171.036 29.8921C170.934 29.7904 170.877 29.6526 170.877 29.5089V23.4126C170.877 22.2442 170.505 21.1841 169.004 21.1841C167.588 21.1841 166.504 22.1832 166.504 23.8495V29.5089C166.504 29.6526 166.447 29.7904 166.346 29.8921C166.244 29.9937 166.106 30.0508 165.963 30.0508H164.401C164.257 30.0508 164.12 29.9937 164.018 29.8921C163.916 29.7904 163.859 29.6526 163.859 29.5089Z" fill="#838F8C"/>
<path d="M190.717 29.6837L189.586 26.368H183.909L182.785 29.6837C182.748 29.7915 182.679 29.8851 182.587 29.9514C182.494 30.0176 182.383 30.0531 182.27 30.0529H180.441C180.353 30.0529 180.267 30.0318 180.19 29.9912C180.112 29.9507 180.045 29.892 179.995 29.82C179.945 29.7482 179.913 29.6652 179.903 29.5784C179.892 29.4915 179.902 29.4033 179.933 29.3213L185.047 15.537C185.088 15.436 185.158 15.3497 185.249 15.2892C185.339 15.2288 185.447 15.1971 185.555 15.1983H188.071C188.18 15.1971 188.287 15.2288 188.378 15.2892C188.469 15.3497 188.539 15.436 188.58 15.537L193.677 29.3247C193.707 29.4065 193.717 29.4944 193.706 29.5807C193.694 29.6672 193.663 29.7496 193.613 29.821C193.563 29.8925 193.496 29.9508 193.419 29.9912C193.342 30.0316 193.256 30.0527 193.169 30.0529H191.232C191.118 30.0531 191.007 30.0176 190.915 29.9514C190.822 29.8851 190.753 29.7915 190.717 29.6837ZM186.782 17.5995L184.597 24.0582H188.884L186.782 17.5995Z" fill="#838F8C"/>
<path d="M197.582 19.5997V20.4532C197.967 19.9199 198.477 19.4903 199.068 19.203C199.66 18.9157 200.313 18.7797 200.969 18.8072C203.971 18.8072 205.908 21.2864 205.908 24.5343C205.908 27.7823 203.971 30.2919 200.969 30.2919C200.311 30.3168 199.657 30.1776 199.065 29.8867C198.474 29.5958 197.965 29.1624 197.582 28.6256V33.1335C197.582 33.2772 197.526 33.415 197.424 33.5166C197.322 33.6183 197.184 33.6753 197.04 33.6753H195.479C195.335 33.6753 195.197 33.6183 195.096 33.5166C194.994 33.415 194.938 33.2772 194.938 33.1335V19.5862C194.938 19.4425 194.994 19.3046 195.096 19.203C195.197 19.1014 195.335 19.0443 195.479 19.0443H197.027C197.101 19.0424 197.173 19.0555 197.242 19.0828C197.31 19.11 197.372 19.1509 197.424 19.2028C197.476 19.2548 197.517 19.3167 197.544 19.385C197.571 19.4532 197.584 19.5263 197.582 19.5997ZM200.414 27.9889C202.246 27.9889 203.144 26.4276 203.144 24.5343C203.144 22.6411 202.246 21.117 200.414 21.117C198.581 21.117 197.582 22.6377 197.582 24.5343C197.582 26.431 198.562 27.9889 200.414 27.9889Z" fill="#838F8C"/>
<path d="M210.189 19.5994V20.453C210.573 19.9203 211.084 19.4912 211.675 19.204C212.266 18.9168 212.919 18.7804 213.576 18.807C216.573 18.807 218.51 21.2861 218.51 24.5341C218.51 27.782 216.573 30.2917 213.576 30.2917C212.917 30.3157 212.263 30.176 211.672 29.8852C211.081 29.5944 210.571 29.1615 210.189 28.6254V33.1332C210.189 33.2769 210.131 33.4147 210.03 33.5164C209.928 33.618 209.79 33.6751 209.647 33.6751H208.089C207.945 33.6751 207.807 33.618 207.706 33.5164C207.604 33.4147 207.547 33.2769 207.547 33.1332V19.5859C207.546 19.5146 207.56 19.4439 207.587 19.378C207.614 19.3121 207.654 19.2522 207.704 19.2018C207.755 19.1513 207.815 19.1114 207.88 19.0844C207.947 19.0573 208.017 19.0436 208.089 19.044H209.647C209.719 19.0435 209.791 19.0577 209.858 19.0856C209.925 19.1135 209.985 19.1546 210.036 19.2065C210.086 19.2583 210.126 19.3199 210.152 19.3874C210.178 19.4549 210.191 19.527 210.189 19.5994ZM213.023 27.9886C214.856 27.9886 215.733 26.4273 215.733 24.5341C215.733 22.6408 214.839 21.1167 213.023 21.1167C211.208 21.1167 210.189 22.6374 210.189 24.5341C210.189 26.4307 211.171 27.9886 213.023 27.9886Z" fill="#838F8C"/>
</g>
<path d="M105.537 8.00293C108.489 8.00293 109.942 8.00295 111.536 8.50391C112.392 8.81377 113.169 9.30771 113.813 9.95117C114.456 10.5946 114.95 11.372 115.26 12.2275C115.761 13.8085 115.761 15.2745 115.761 18.2129V27.0547C115.761 29.9897 115.761 31.4558 115.26 33.04C114.95 33.8957 114.456 34.6729 113.813 35.3164C113.169 35.9599 112.392 36.4538 111.536 36.7637C109.955 37.2647 108.489 37.2646 105.551 37.2646H96.6816C93.7467 37.2646 92.2805 37.2646 90.6963 36.7637C89.8406 36.4538 89.0625 35.9599 88.4189 35.3164C87.7756 34.673 87.2815 33.8956 86.9717 33.04C86.4843 31.4592 86.4844 30.0065 86.4844 27.0547V18.1992C86.4844 15.2643 86.4843 13.7982 86.9854 12.2139C87.2952 11.3583 87.7892 10.5809 88.4326 9.9375C89.0761 9.29405 89.8534 8.80006 90.709 8.49023C92.2764 8.00279 93.7465 8.00293 96.6816 8.00293H105.537ZM102.272 12.9639C102.138 12.9637 102.007 13.0095 101.901 13.0938C101.796 13.1781 101.723 13.2961 101.693 13.4277L101.389 14.9209C98.4909 15.0631 96.0334 16.4979 96.0332 19.4395C96.0332 21.9818 98.0646 23.0757 100.211 23.8408C102.242 24.5956 103.318 24.8766 103.318 25.9395C103.318 27.0024 102.245 27.6729 100.664 27.6729C99.1298 27.6973 97.6473 27.1168 96.5371 26.0576C96.427 25.9494 96.2784 25.8887 96.124 25.8887C95.9696 25.8887 95.821 25.9493 95.7109 26.0576L94.499 27.2432C94.4426 27.2977 94.3979 27.3633 94.3672 27.4355C94.3365 27.5079 94.3203 27.5855 94.3203 27.6641C94.3203 27.7428 94.3364 27.8212 94.3672 27.8936C94.3979 27.9658 94.4426 28.0314 94.499 28.0859C95.4865 29.0107 96.692 29.6706 98.0029 30.0049L97.665 31.5527C97.6472 31.6389 97.6486 31.7278 97.6689 31.8135C97.6894 31.8993 97.7283 31.9798 97.7832 32.0488C97.8381 32.1179 97.9073 32.1746 97.9863 32.2139C98.0653 32.2532 98.152 32.2743 98.2402 32.2764H100.424C100.56 32.2771 100.692 32.2316 100.798 32.1465C100.904 32.0615 100.977 31.9424 101.006 31.8096L101.321 30.3438C104.794 30.1303 106.917 28.2616 106.917 25.5264C106.917 23.0078 104.801 21.9447 102.231 21.0781C100.762 20.5263 99.4932 20.1642 99.4932 19.0742C99.4932 17.9843 100.677 17.5919 101.862 17.5918C103.301 17.594 104.692 18.1042 105.79 19.0332C105.903 19.1359 106.051 19.1916 106.204 19.1885C106.357 19.1854 106.503 19.1239 106.612 19.0166L107.743 17.8828C107.8 17.8266 107.844 17.7588 107.873 17.6846C107.902 17.6103 107.917 17.531 107.914 17.4512C107.911 17.3713 107.891 17.2927 107.856 17.2207C107.822 17.149 107.773 17.0851 107.713 17.0332C106.825 16.2778 105.798 15.7021 104.689 15.3398L105.028 13.6709C105.046 13.5853 105.043 13.4969 105.022 13.4121C105.002 13.3271 104.963 13.2474 104.907 13.1797C104.852 13.1119 104.781 13.0579 104.702 13.0205C104.623 12.9832 104.537 12.9636 104.449 12.9639H102.272Z" fill="#838F8C"/>
</svg>
