<svg width="305" height="46" viewBox="0 0 305 46" fill="none" xmlns="http://www.w3.org/2000/svg">
<path d="M96.5 12.8348C96.5 11.6203 97.4846 10.6357 98.6991 10.6357H107.301C108.515 10.6357 109.5 11.6203 109.5 12.8348V14.5362C109.5 15.1435 109.008 15.6358 108.401 15.6358H97.5995C96.9923 15.6358 96.5 15.1435 96.5 14.5362V12.8348Z" fill="#838F8C"/>
<path d="M96.5 19.7353C96.5 19.128 96.9923 18.6357 97.5995 18.6357H118.301C119.515 18.6357 120.5 19.6203 120.5 20.8348V26.5362C120.5 27.1434 120.008 27.6358 119.401 27.6358H98.6991C97.4846 27.6358 96.5 26.6512 96.5 25.4367V19.7353Z" fill="#838F8C"/>
<path d="M107.5 31.7352C107.5 31.128 107.992 30.6357 108.599 30.6357H119.401C120.008 30.6357 120.5 31.128 120.5 31.7352V32.4366C120.5 33.6512 119.515 34.6357 118.301 34.6357H109.699C108.485 34.6357 107.5 33.6512 107.5 32.4366V31.7352Z" fill="#838F8C"/>
<path d="M134.096 25.3768H136.407L140.7 32.3939H145.956L141.195 24.8814C143.837 23.9733 145.378 21.937 145.378 18.9925C145.378 14.8647 142.489 12.6357 137.838 12.6357H129.5V32.3939H134.096V25.3768ZM134.096 21.6342V16.5158H137.59C139.764 16.5158 140.865 17.4515 140.865 19.075C140.865 20.6711 139.764 21.6342 137.59 21.6342H134.096Z" fill="#838F8C"/>
<path d="M153.863 32.6964C156.753 32.6964 159.395 31.2381 160.468 28.4586L156.78 27.2753C156.368 28.5412 155.294 29.2016 153.918 29.2016C152.24 29.2016 151.056 28.0735 150.754 26.092H160.578V24.9363C160.578 20.836 158.184 17.5889 153.781 17.5889C149.598 17.5889 146.516 20.836 146.516 25.1289C146.516 29.642 149.488 32.6964 153.863 32.6964ZM153.726 21.0012C155.349 21.0012 156.203 22.1019 156.23 23.3952H150.891C151.331 21.7992 152.377 21.0012 153.726 21.0012Z" fill="#838F8C"/>
<path d="M163.078 28.5137C163.078 31.4858 164.647 32.5315 167.784 32.5315C168.829 32.5315 169.655 32.449 170.425 32.3389V28.734C169.93 28.789 169.682 28.8165 169.16 28.8165C168.059 28.8165 167.426 28.5964 167.426 27.3856V21.5242H170.26V17.8917H167.426V13.874H163.078V17.8917H161.234V21.5242H163.078V28.5137Z" fill="#838F8C"/>
<path d="M186.17 25.1564C186.17 20.6434 183.171 17.5889 178.905 17.5889C174.613 17.5889 171.641 20.6434 171.641 25.1564C171.641 29.6695 174.613 32.6964 178.905 32.6964C183.171 32.6964 186.17 29.6695 186.17 25.1564ZM176.016 25.1564C176.016 22.6247 177.144 21.1938 178.905 21.1938C180.667 21.1938 181.795 22.6247 181.795 25.1564C181.795 27.6881 180.667 29.119 178.905 29.119C177.144 29.119 176.016 27.6881 176.016 25.1564Z" fill="#838F8C"/>
<path d="M202.03 25.1564C202.03 20.6434 199.031 17.5889 194.765 17.5889C190.472 17.5889 187.5 20.6434 187.5 25.1564C187.5 29.6695 190.472 32.6964 194.765 32.6964C199.031 32.6964 202.03 29.6695 202.03 25.1564ZM191.876 25.1564C191.876 22.6247 193.004 21.1938 194.765 21.1938C196.526 21.1938 197.654 22.6247 197.654 25.1564C197.654 27.6881 196.526 29.119 194.765 29.119C193.004 29.119 191.876 27.6881 191.876 25.1564Z" fill="#838F8C"/>
<path d="M208.497 12.6357H204.094V32.3939H208.497V12.6357Z" fill="#838F8C"/>
</svg>
