<svg width="305" height="46" viewBox="0 0 305 46" fill="none" xmlns="http://www.w3.org/2000/svg">
<path fill-rule="evenodd" clip-rule="evenodd" d="M95.905 12.5549C95.7452 12.7291 95.7558 12.9964 95.9236 13.1629L116.674 33.7413C116.841 33.9078 117.111 33.9183 117.287 33.7598C120.329 31.0141 122.239 27.0554 122.239 22.6544C122.239 14.3642 115.462 7.64355 107.103 7.64355C102.665 7.64355 98.6735 9.53757 95.905 12.5549ZM93.3116 16.4604C93.2349 16.628 93.2736 16.8246 93.4048 16.9548L112.85 36.2393C112.981 36.3695 113.179 36.4078 113.349 36.3318C113.798 36.1297 114.235 35.9065 114.66 35.6635C114.912 35.519 114.951 35.1776 114.745 34.9733L94.6813 15.0758C94.4753 14.8715 94.1311 14.9099 93.9854 15.1601C93.7404 15.581 93.5153 16.0149 93.3116 16.4604ZM92.1319 21.9824C92.0408 21.8921 91.9924 21.7676 92.001 21.6402C92.0411 21.0435 92.1164 20.4563 92.2248 19.8807C92.2899 19.5356 92.7151 19.4158 92.9655 19.664L110.118 36.675C110.369 36.9233 110.248 37.345 109.9 37.4095C109.319 37.517 108.727 37.5917 108.126 37.6315C107.997 37.64 107.872 37.592 107.781 37.5017L92.1319 21.9824ZM93.1845 26.1712C92.872 25.8613 92.3677 26.1284 92.4821 26.5517C93.8765 31.7096 97.9722 35.7715 103.173 37.1543C103.6 37.2679 103.869 36.7677 103.557 36.4578L93.1845 26.1712ZM152.979 15.9041C154.064 15.9041 154.944 15.0287 154.944 13.9488C154.944 12.869 154.064 11.9936 152.979 11.9936C151.895 11.9936 151.015 12.869 151.015 13.9488C151.015 15.0287 151.895 15.9041 152.979 15.9041ZM136.154 32.9559V11.9947H139.645V29.8891H149.057V32.9559H136.154ZM161 24.4026V32.9559H157.622V18.1002H160.958V20.6465L161 20.6184C161.339 19.8212 161.886 19.1553 162.64 18.6207C163.393 18.0767 164.354 17.8048 165.523 17.8048C166.559 17.8048 167.501 18.0346 168.349 18.4941C169.197 18.9443 169.875 19.6055 170.384 20.4777C170.893 21.3499 171.147 22.4191 171.147 23.6852V32.9559H167.77V24.1494C167.77 23.024 167.468 22.1705 166.865 21.5891C166.272 20.9982 165.476 20.7028 164.477 20.7028C163.836 20.7028 163.252 20.8341 162.724 21.0967C162.197 21.3593 161.778 21.7625 161.467 22.3065C161.156 22.8505 161 23.5492 161 24.4026ZM191.584 32.7027C192.357 33.031 193.243 33.1951 194.241 33.1951C195.061 33.1951 195.763 33.0919 196.347 32.8856C196.931 32.6699 197.412 32.3838 197.789 32.0274C198.175 31.6711 198.481 31.2818 198.707 30.8598H198.764V32.9559H202V22.7285C202 22.0064 201.859 21.3452 201.576 20.745C201.294 20.1447 200.884 19.6242 200.347 19.1834C199.819 18.7426 199.178 18.405 198.424 18.1706C197.671 17.9267 196.823 17.8048 195.881 17.8048C194.59 17.8048 193.473 18.0252 192.531 18.466C191.598 18.8974 190.868 19.4789 190.34 20.2104C189.813 20.9419 189.526 21.7673 189.478 22.6863H192.743C192.781 22.2549 192.932 21.8704 193.195 21.5328C193.459 21.1952 193.817 20.9325 194.27 20.745C194.722 20.548 195.245 20.4495 195.838 20.4495C196.432 20.4495 196.936 20.548 197.351 20.745C197.774 20.9419 198.1 21.2092 198.326 21.5468C198.552 21.8845 198.665 22.2784 198.665 22.7285V22.8411C198.665 23.1787 198.547 23.4272 198.312 23.5867C198.085 23.7461 197.699 23.8634 197.153 23.9384C196.616 24.0134 195.881 24.1025 194.948 24.2057C194.185 24.2901 193.45 24.4167 192.743 24.5855C192.037 24.7543 191.405 25.0029 190.849 25.3311C190.303 25.6594 189.869 26.0955 189.549 26.6394C189.229 27.1834 189.069 27.8821 189.069 28.7355C189.069 29.7203 189.295 30.5456 189.747 31.2115C190.199 31.868 190.812 32.3651 191.584 32.7027ZM197.054 30.2127C196.507 30.5034 195.834 30.6488 195.033 30.6488C194.222 30.6488 193.577 30.48 193.097 30.1424C192.616 29.7953 192.376 29.3217 192.376 28.7215C192.376 28.2526 192.508 27.8727 192.771 27.582C193.045 27.2912 193.403 27.0615 193.846 26.8927C194.288 26.7238 194.769 26.6066 195.287 26.5409C195.664 26.4847 196.031 26.4284 196.39 26.3721C196.747 26.3065 197.082 26.2455 197.393 26.1893C197.704 26.1236 197.968 26.0579 198.184 25.9923C198.411 25.9267 198.575 25.8563 198.679 25.7813V27.4413C198.679 28.0228 198.542 28.5574 198.269 29.045C198.005 29.5234 197.6 29.9126 197.054 30.2127ZM204.947 32.9559V18.1002H208.198V20.548H208.24C208.513 19.7039 208.942 19.0615 209.526 18.6207C210.12 18.1706 210.897 17.9455 211.858 17.9455C212.094 17.9455 212.306 17.9548 212.494 17.9736C212.692 17.983 212.857 17.9924 212.989 18.0017V21.0263C212.866 21.0076 212.65 20.9841 212.339 20.956C212.028 20.9279 211.698 20.9138 211.349 20.9138C210.793 20.9138 210.285 21.0404 209.823 21.2936C209.361 21.5468 208.994 21.9361 208.721 22.4612C208.457 22.9771 208.325 23.6289 208.325 24.4167V32.9559H204.947ZM151.283 32.9559V18.1002H154.661V32.9559H151.283ZM176.765 32.2947C177.849 32.9606 179.135 33.2936 180.624 33.2936C181.773 33.2936 182.819 33.0872 183.761 32.6746C184.713 32.2525 185.504 31.6757 186.136 30.9442C186.767 30.2033 187.177 29.3498 187.365 28.3838H184.185C184.044 28.8246 183.813 29.2139 183.493 29.5515C183.182 29.8797 182.791 30.1376 182.32 30.3252C181.849 30.5128 181.302 30.6066 180.68 30.6066C179.842 30.6066 179.121 30.419 178.518 30.0439C177.925 29.6687 177.472 29.1482 177.161 28.4823C176.879 27.8694 176.725 27.1754 176.699 26.4003H187.563V25.4999C187.563 24.3557 187.394 23.3147 187.054 22.3769C186.715 21.4296 186.235 20.6137 185.613 19.929C184.991 19.235 184.242 18.7004 183.366 18.3253C182.499 17.9501 181.533 17.7626 180.468 17.7626C179.084 17.7626 177.859 18.0955 176.794 18.7614C175.729 19.4273 174.895 20.3464 174.292 21.5187C173.689 22.691 173.388 24.0322 173.388 25.5421C173.388 27.0427 173.68 28.3792 174.264 29.5515C174.848 30.7144 175.682 31.6289 176.765 32.2947ZM183.875 22.4612C183.564 21.8235 183.121 21.3311 182.546 20.9841C181.971 20.6371 181.293 20.4636 180.511 20.4636C179.738 20.4636 179.064 20.6371 178.49 20.9841C177.925 21.3311 177.482 21.8235 177.161 22.4612C176.933 22.9231 176.788 23.4483 176.728 24.0369H184.308C184.248 23.4483 184.103 22.9231 183.875 22.4612Z" fill="#838F8C"/>
</svg>
