<svg width="305" height="46" viewBox="0 0 305 46" fill="none" xmlns="http://www.w3.org/2000/svg">
<path fill-rule="evenodd" clip-rule="evenodd" d="M188.731 22.7301C188.731 17.6033 186.248 13.5579 181.501 13.5579C176.735 13.5579 173.851 17.6033 173.851 22.6901C173.851 28.7181 177.256 31.7622 182.142 31.7622C184.525 31.7622 186.328 31.2215 187.69 30.4604V26.4551C186.328 27.136 184.766 27.5566 182.783 27.5566C180.84 27.5566 179.118 26.8757 178.898 24.5125H188.691C188.691 24.2522 188.731 23.2108 188.731 22.7301ZM178.838 20.8276C178.838 18.5646 180.22 17.6233 181.481 17.6233C182.703 17.6233 184.005 18.5646 184.005 20.8276H178.838ZM166.12 13.5579C164.158 13.5579 162.896 14.4791 162.195 15.12L161.935 13.8783H157.529V37.2295L162.535 36.1681L162.555 30.5005C163.276 31.0212 164.338 31.7622 166.1 31.7622C169.685 31.7622 172.95 28.8783 172.95 22.5299C172.93 16.7221 169.625 13.5579 166.12 13.5579ZM164.919 27.3563C163.737 27.3563 163.036 26.9358 162.555 26.4151L162.535 18.9851C163.056 18.4044 163.777 18.0038 164.919 18.0038C166.741 18.0038 168.003 20.0466 168.003 22.6701C168.003 25.3536 166.761 27.3563 164.919 27.3563ZM150.639 12.3763L155.666 11.2949V7.22949L150.639 8.29089V12.3763ZM150.639 13.8984H155.666V31.4217H150.639V13.8984ZM145.252 15.3803L144.931 13.8984H140.605V31.4217H145.612V19.5459C146.794 18.0038 148.797 18.2842 149.418 18.5045V13.8984C148.777 13.658 146.433 13.2175 145.252 15.3803ZM135.238 9.55259L130.351 10.594L130.331 26.6353C130.331 29.5993 132.554 31.7822 135.519 31.7822C137.161 31.7822 138.362 31.4818 139.023 31.1213V27.0559C138.382 27.3163 135.218 28.2375 135.218 25.2735V18.1641H139.023V13.8984H135.218L135.238 9.55259ZM121.7 18.9851C121.7 18.2041 122.341 17.9037 123.402 17.9037C124.924 17.9037 126.847 18.3643 128.369 19.1854V14.4791C126.707 13.8183 125.064 13.5579 123.402 13.5579C119.337 13.5579 116.633 15.6807 116.633 19.2255C116.633 24.7528 124.243 23.8717 124.243 26.2548C124.243 27.1761 123.442 27.4765 122.321 27.4765C120.658 27.4765 118.535 26.7956 116.853 25.8743V30.6407C118.716 31.4418 120.598 31.7822 122.321 31.7822C126.486 31.7822 129.35 29.7195 129.35 26.1347C129.33 20.1667 121.7 21.2281 121.7 18.9851Z" fill="#838F8C"/>
</svg>
