<svg width="305" height="46" viewBox="0 0 305 46" fill="none" xmlns="http://www.w3.org/2000/svg">
<path d="M141.078 33.6874V11.5811H145.033V33.6874H141.078Z" fill="#838F8C"/>
<path d="M179.016 18.6646H182.793V20.4973C183.595 19.0318 185.47 18.2373 187.075 18.2373C189.069 18.2373 190.674 19.1232 191.417 20.7409C192.576 18.9082 194.124 18.2373 196.057 18.2373C198.763 18.2373 201.35 19.9168 201.35 23.9468V33.6872H197.514V24.7718C197.514 23.1532 196.74 21.9323 194.926 21.9323C193.23 21.9323 192.219 23.2759 192.219 24.8946V33.6882H188.295V24.7718C188.295 23.1532 187.492 21.9323 185.707 21.9323C183.981 21.9323 182.97 23.2455 182.97 24.8946V33.6882H179.016V18.6646Z" fill="#838F8C"/>
<path d="M153.971 34.1222C149.516 34.1222 146.289 30.7309 146.289 26.1759C146.289 21.6936 149.505 18.2217 153.971 18.2217C158.459 18.2217 161.653 21.7258 161.653 26.1759C161.653 30.6977 158.425 34.1222 153.971 34.1222ZM153.971 21.8987C151.673 21.8987 149.804 23.8174 149.804 26.1769C149.804 28.5363 151.673 30.455 153.971 30.455C156.269 30.455 158.138 28.5363 158.138 26.1769C158.138 23.8174 156.269 21.8987 153.971 21.8987Z" fill="#838F8C"/>
<path d="M170.104 34.1222C165.648 34.1222 162.422 30.7309 162.422 26.1759C162.422 21.6936 165.638 18.2217 170.104 18.2217C174.592 18.2217 177.786 21.7258 177.786 26.1759C177.786 30.6977 174.556 34.1222 170.104 34.1222ZM170.104 21.8477C167.78 21.8477 165.889 23.7896 165.889 26.175C165.889 28.5605 167.78 30.5025 170.104 30.5025C172.428 30.5025 174.319 28.5605 174.319 26.175C174.319 23.7896 172.427 21.8477 170.104 21.8477Z" fill="#838F8C"/>
<path d="M133.104 20.9556H124.493L131.951 16.5372L130.313 13.6255L122.856 18.0438L127.16 10.3916L124.323 8.71L120.018 16.3622V7.52637H116.742V16.3631L112.436 8.71L109.6 10.3908L113.905 18.043L106.447 13.6255L104.81 16.5364L112.267 20.9547H103.656V24.3163H112.266L104.81 28.7346L106.447 31.6464L113.904 27.2288L109.599 34.881L112.436 36.5618L116.742 28.9088V37.7455H120.017V28.9096L124.322 36.5618L127.159 34.881L122.854 27.228L130.311 31.6464L131.949 28.7346L124.493 24.3171H133.103V20.9556H133.104ZM118.38 27.2076C115.91 27.2076 113.908 25.1533 113.908 22.6186C113.908 20.0839 115.91 18.0295 118.38 18.0295C120.85 18.0295 122.852 20.0839 122.852 22.6186C122.852 25.1533 120.85 27.2076 118.38 27.2076Z" fill="#838F8C"/>
</svg>
