<svg width="305" height="46" viewBox="0 0 305 46" fill="none" xmlns="http://www.w3.org/2000/svg">
<path d="M157.94 12.1011H163.821L160.862 33.2078H154.981L157.94 12.1011ZM150.525 12.1011L146.557 24.2599L144.825 12.1011H140.712L135.516 24.2238L134.867 12.1011H129.166L131.151 33.2078H135.877L141.722 19.8582L143.779 33.2078H148.433L156.118 12.1011H150.525ZM199.901 24.3681H185.938C186.01 27.1104 187.652 28.9143 190.069 28.9143C191.891 28.9143 193.334 27.9401 194.453 26.0821L199.167 28.2252C197.547 31.4165 194.133 33.4964 189.925 33.4964C184.188 33.4964 180.382 29.6358 180.382 23.4302C180.382 16.6111 184.855 11.7764 191.169 11.7764C196.726 11.7764 200.225 15.5287 200.225 21.3736C200.225 22.3478 200.117 23.322 199.901 24.3681ZM194.669 20.3273C194.669 17.8739 193.298 16.3225 191.097 16.3225C188.897 16.3225 186.948 17.946 186.443 20.3273H194.669ZM110.785 18.462L104.781 25.4777H115.501L116.706 22.1691H112.113L114.92 18.9238L114.929 18.8372L113.103 15.6965H121.313L114.949 33.2078H119.304L126.989 12.1011H107.134L110.783 18.462H110.785ZM173.382 16.3225C175.457 16.3225 177.275 17.4373 178.862 19.3495L179.696 13.4C178.216 12.3988 176.214 11.7764 173.562 11.7764C168.295 11.7764 165.336 14.8612 165.336 18.7759C165.336 21.4909 166.852 23.1505 169.341 24.2238L170.532 24.7652C172.75 25.7122 173.346 26.1812 173.346 27.1826C173.346 28.1837 172.345 28.8783 170.82 28.8783C168.303 28.8872 166.265 27.5974 164.732 25.3965L163.882 31.4597C165.628 32.7912 167.867 33.4964 170.82 33.4964C175.826 33.4964 178.902 30.61 178.902 26.6052C178.902 23.8811 177.693 22.1313 174.645 20.7603L173.346 20.1469C171.542 19.3441 170.929 18.9021 170.929 18.0182C170.929 17.0621 171.767 16.3225 173.382 16.3225Z" fill="#838F8C"/>
</svg>
