<svg width="305" height="46" viewBox="0 0 305 46" fill="none" xmlns="http://www.w3.org/2000/svg">
<path d="M148.942 13.6992L148.914 13.7052C147.894 13.9354 147.377 14.2787 147.377 15.5169H147.372L147.377 30.3712C147.464 31.3491 147.99 31.651 148.914 31.8596L148.942 31.8659V32.0761H141.825V31.8659L141.852 31.8596C142.776 31.651 143.289 31.3491 143.376 30.3712V15.9203L136.517 32.0428H136.139L129.474 16.3577V30.0131C129.474 31.2513 129.992 31.5947 131.012 31.8249L131.039 31.8309V32.0428H126.953V31.8302L126.98 31.8242C128 31.594 128.52 31.2506 128.52 30.0125V15.5169C128.52 14.2787 128.002 13.9354 126.982 13.7052L126.955 13.6992V13.4873H132.977L138.165 25.6823L143.354 13.4873H148.942V13.6992Z" fill="#838F8C"/>
<path fill-rule="evenodd" clip-rule="evenodd" d="M160.437 24.044H152.096L152.095 24.0446C151.933 26.9033 153.716 29.2633 156.043 29.4375C157.748 29.5649 159.247 28.5199 160.081 26.7956L160.32 26.88C159.846 30.0884 157.942 32.4787 154.672 32.4787C150.947 32.4787 148.849 29.3758 148.759 25.493C148.757 25.3429 148.758 25.1937 148.761 25.0456C148.763 24.9532 148.766 24.8611 148.771 24.7693C148.774 24.7202 148.776 24.6743 148.78 24.6229C148.783 24.5715 148.787 24.5201 148.791 24.4687C148.925 22.7544 149.477 21.2289 150.388 20.1002C150.954 19.3995 151.634 18.8657 152.405 18.5087C153.082 18.1677 154.034 17.9795 154.81 17.9795H154.844C156.339 17.9795 157.763 18.4853 158.724 19.4045C159.836 20.4682 160.413 22.0173 160.437 24.0089V24.044ZM154.788 18.7932C153.218 18.8256 152.283 20.7055 152.166 23.3099H156.93C156.979 21.277 156.664 19.9167 155.993 19.2657C155.678 18.9601 155.271 18.8013 154.788 18.7932Z" fill="#838F8C"/>
<path fill-rule="evenodd" clip-rule="evenodd" d="M173.867 29.949C173.867 31.2502 174.385 31.6096 175.404 31.8508L175.431 31.8561V32.0783H169.871V29.933C169.234 31.5312 167.843 32.4787 166.113 32.4787C163.158 32.4787 161.171 29.7668 161.172 25.7319C161.172 23.4728 161.821 21.5249 163.05 20.0995C164.229 18.7319 165.864 17.9789 167.652 17.9789C168.533 17.9789 169.26 18.1687 169.871 18.5587V16.1851C169.871 15.6593 169.743 15.2856 169.479 15.0421C169.142 14.7311 168.563 14.613 167.708 14.682L167.67 14.685V14.4615L173.867 12.6357V29.949ZM168.262 30.3117C169.027 30.3117 169.598 29.9547 169.871 29.3057V19.7452C169.601 19.1223 169.034 18.7653 168.315 18.7653C166.596 18.7653 165.486 21.0745 165.486 24.6446C165.486 26.3599 165.766 27.8079 166.301 28.8323C166.797 29.7865 167.496 30.3117 168.262 30.3117Z" fill="#838F8C"/>
<path d="M178.509 12.7803C179.769 12.7803 180.719 13.7305 180.719 14.9904C180.719 16.2503 179.769 17.2005 178.509 17.2005C177.256 17.2005 176.273 16.2296 176.273 14.9904C176.273 13.7512 177.255 12.7803 178.509 12.7803Z" fill="#838F8C"/>
<path d="M180.643 29.9477C180.643 31.2489 181.16 31.6082 182.181 31.8495L182.209 31.8548V32.077H176.644V21.7625C176.644 20.3565 176.315 19.9421 175.111 19.835L175.078 19.832V19.6151L180.638 18.0186V29.9477H180.643Z" fill="#838F8C"/>
<path d="M194.892 29.9477C194.892 31.2489 195.41 31.6082 196.43 31.8495L196.456 31.8585V32.0807H190.896V29.8786C190.264 31.4641 188.829 32.4774 187.192 32.4774C185.26 32.4774 184.026 31.5952 183.555 29.9083L183.456 29.4729C183.376 29.0346 183.337 28.5898 183.34 28.1442V21.7625C183.34 20.3561 183.01 19.9417 181.807 19.835L181.773 19.832V19.6154L187.334 18.0189V28.0392C187.334 29.5216 188 30.338 189.209 30.338C189.954 30.312 190.569 29.9266 190.897 29.2777V21.7371C190.897 20.3248 190.613 19.8867 189.629 19.7832L189.598 19.7799V19.5624L194.892 18.0186V29.9477Z" fill="#838F8C"/>
<path d="M218.036 31.8565V32.079H212.476V22.1788C212.476 20.5783 211.907 19.8006 210.734 19.8006C209.766 19.8006 209.268 20.5022 209.021 21.0951C209.071 21.4003 209.096 21.7093 209.094 22.0187V30.2933C209.094 31.2642 209.379 31.6426 210.262 31.8501L210.289 31.8568V32.079H205.1V22.1788C205.1 20.6013 204.514 19.8006 203.358 19.8006C202.427 19.8006 201.956 20.4468 201.723 20.9924V30.2933C201.723 31.2642 202.008 31.6426 202.891 31.8501L202.918 31.8568V32.079H197.73V21.6757C197.73 20.3057 197.386 19.8793 196.198 19.7738L196.164 19.7708V19.5527L201.725 18.0215V20.3527C202.287 18.862 203.597 17.9795 205.27 17.9795C207.174 17.9795 208.461 18.889 208.908 20.5439C209.471 18.9821 210.935 17.9795 212.67 17.9795C215.05 17.9795 216.471 19.4896 216.471 22.0197V30.1341C216.471 31.1137 216.902 31.5949 218.009 31.8501L218.036 31.8565Z" fill="#838F8C"/>
<path d="M96.7864 32.6372C102.213 32.6372 106.612 28.2076 106.612 22.7437C106.612 17.2798 102.213 12.8506 96.7864 12.8506C91.36 12.8506 86.9609 17.2785 86.9609 22.7437C86.9609 28.209 91.3597 32.6372 96.7864 32.6372Z" fill="#838F8C"/>
<path d="M112.475 32.0585C115.189 32.0585 117.388 27.8891 117.388 22.7456C117.388 17.6033 115.189 13.4326 112.475 13.4326C109.762 13.4326 107.562 17.6033 107.562 22.7456C107.562 27.8878 109.762 32.0585 112.475 32.0585Z" fill="#838F8C"/>
<path d="M121.8 22.7415C121.8 27.3499 121.026 31.0855 120.072 31.0855C119.117 31.0855 118.344 27.3485 118.344 22.7415C118.344 18.1344 119.117 14.3975 120.072 14.3975C121.027 14.3975 121.8 18.1334 121.8 22.7415Z" fill="#838F8C"/>
</svg>
