<svg width="305" height="46" viewBox="0 0 305 46" fill="none" xmlns="http://www.w3.org/2000/svg">
<mask id="mask0_87_2561" style="mask-type:luminance" maskUnits="userSpaceOnUse" x="97" y="7" width="111" height="31">
<path d="M207.925 7.19043H97V37.2717H207.925V7.19043Z" fill="white"/>
</mask>
<g mask="url(#mask0_87_2561)">
<path d="M131.547 21.6512C131.547 26.5695 134.705 29.9988 139.082 29.9988C143.459 29.9988 146.618 26.5695 146.618 21.6512C146.618 16.7329 143.459 13.3037 139.082 13.3037C134.705 13.3037 131.547 16.7329 131.547 21.6512ZM143.73 21.6512C143.73 25.1708 141.812 27.4494 139.082 27.4494C136.352 27.4494 134.435 25.1708 134.435 21.6512C134.435 18.1318 136.352 15.8531 139.082 15.8531C141.812 15.8531 143.73 18.1318 143.73 21.6512Z" fill="#838F8C"/>
<path d="M154.747 30.0009C158.063 30.0009 159.958 27.2033 159.958 23.8418C159.958 20.4802 158.063 17.6826 154.747 17.6826C153.213 17.6826 152.085 18.2918 151.34 19.1716V17.9082H148.633V33.8137H151.34V28.5119C152.085 29.3918 153.213 30.0009 154.747 30.0009ZM151.272 23.5033C151.272 21.2698 152.536 20.0515 154.205 20.0515C156.168 20.0515 157.229 21.5857 157.229 23.8418C157.229 26.0979 156.168 27.632 154.205 27.632C152.536 27.632 151.272 26.3912 151.272 24.2027V23.5033Z" fill="#838F8C"/>
<path d="M167.284 30.0009C169.653 30.0009 171.526 28.7601 172.361 26.6844L170.037 25.8046C169.676 27.0229 168.615 27.6997 167.284 27.6997C165.547 27.6997 164.329 26.4588 164.126 24.4283H172.428V23.5259C172.428 20.2771 170.601 17.6826 167.171 17.6826C163.742 17.6826 161.531 20.3674 161.531 23.8418C161.531 27.4966 163.9 30.0009 167.284 30.0009ZM167.149 19.9613C168.864 19.9613 169.676 21.0893 169.698 22.3979H164.261C164.667 20.796 165.75 19.9613 167.149 19.9613Z" fill="#838F8C"/>
<path d="M174.461 29.7527H177.168V22.804C177.168 21.1119 178.409 20.2094 179.627 20.2094C181.116 20.2094 181.703 21.2698 181.703 22.7363V29.7527H184.41V21.9466C184.41 19.3973 182.921 17.6826 180.44 17.6826C178.905 17.6826 177.845 18.382 177.168 19.1716V17.9082H174.461V29.7527Z" fill="#838F8C"/>
<path d="M192.34 13.5537L186.203 29.7525H189.068L190.445 26.0525H197.438L198.837 29.7525H201.748L195.611 13.5537H192.34ZM193.919 16.7574L196.491 23.5257H191.392L193.919 16.7574Z" fill="#838F8C"/>
<path d="M206.396 13.6006H203.508V29.7994H206.396V13.6006Z" fill="#838F8C"/>
<path d="M124.928 19.5023C125.61 17.4539 125.375 15.2101 124.284 13.3469C122.643 10.4892 119.343 9.01895 116.121 9.71082C114.687 8.09583 112.627 7.17741 110.468 7.19057C107.174 7.18305 104.252 9.30378 103.238 12.4379C101.122 12.8713 99.2957 14.1958 98.2268 16.073C96.5733 18.9232 96.9503 22.516 99.1594 24.9601C98.4769 27.0085 98.7119 29.2524 99.8033 31.1155C101.445 33.9733 104.744 35.4435 107.967 34.7516C109.399 36.3666 111.46 37.2851 113.619 37.2709C116.915 37.2794 119.838 35.1568 120.852 32.0199C122.968 31.5865 124.794 30.262 125.863 28.3847C127.515 25.5345 127.137 21.9445 124.929 19.5004L124.928 19.5023ZM113.621 35.3053C112.302 35.3072 111.025 34.8456 110.012 34.0005C110.058 33.9761 110.138 33.9319 110.19 33.8999L116.18 30.4406C116.486 30.2667 116.674 29.9405 116.672 29.588V21.1436L119.204 22.6053C119.231 22.6185 119.249 22.6448 119.253 22.6749V29.6679C119.249 32.7776 116.731 35.2987 113.621 35.3053ZM101.509 30.1323C100.849 28.9911 100.611 27.6534 100.837 26.3552C100.882 26.3815 100.96 26.4294 101.015 26.4614L107.005 29.9208C107.309 30.0984 107.685 30.0984 107.989 29.9208L115.302 25.6981V28.6216C115.304 28.6517 115.29 28.6808 115.266 28.6996L109.211 32.1957C106.514 33.7486 103.07 32.8255 101.51 30.1323H101.509ZM99.933 17.0572C100.591 15.9142 101.63 15.0399 102.867 14.5859C102.867 14.6376 102.864 14.7288 102.864 14.7927V21.7123C102.862 22.0639 103.05 22.3901 103.356 22.564L110.668 26.7857L108.137 28.2475C108.111 28.2644 108.079 28.2672 108.051 28.255L101.995 24.7562C99.3041 23.1976 98.381 19.7542 99.9321 17.0582L99.933 17.0572ZM120.732 21.8975L113.42 17.6748L115.951 16.214C115.977 16.1971 116.009 16.1943 116.037 16.2065L122.093 19.7025C124.789 21.2602 125.713 24.7092 124.155 27.4052C123.496 28.5464 122.458 29.4207 121.222 29.8756V22.7492C121.225 22.3976 121.038 22.0723 120.733 21.8975H120.732ZM123.252 18.1054C123.207 18.0781 123.129 18.0311 123.074 17.9991L117.084 14.5398C116.78 14.3621 116.404 14.3621 116.1 14.5398L108.787 18.7625V15.839C108.785 15.8089 108.799 15.7797 108.823 15.7609L114.878 12.2677C117.575 10.712 121.023 11.6379 122.578 14.3358C123.235 15.4751 123.473 16.8091 123.25 18.1054H123.252ZM107.411 23.316L104.879 21.8543C104.851 21.8411 104.833 21.8148 104.83 21.7847V14.7917C104.832 11.6783 107.357 9.15526 110.471 9.15714C111.788 9.15714 113.063 9.61964 114.075 10.4619C114.029 10.4863 113.95 10.5305 113.897 10.5625L107.907 14.0219C107.601 14.1958 107.413 14.521 107.415 14.8735L107.411 23.3142V23.316ZM108.786 20.3511L112.044 18.4701L115.301 20.3502V24.1113L112.044 25.9914L108.786 24.1113V20.3511Z" fill="#838F8C"/>
</g>
</svg>
